# xmcd
#
# Track frame offsets: 
#        150
#        15112
#        30480
#        52792
#        68772
#        93110
#        113135
#        131645
#        151690
#        176847
#        191050
#        208440
#        231100
#        248565
#        265905
#
# Disc length: 3864 seconds
#
# Revision: 1
# Processed by: cddbd v1.5.2PL0 Copyright (c) Steve Scherf et al.
# Submitted via: ExactAudioCopy v0.99pb4
#
DISCID=bb0f160f
DTITLE=Слава Медяник - Калифорния
DYEAR=1994
DGENRE=Chanson
TTITLE0=Калифорния
TTITLE1=Были Мы Романтики...
TTITLE2=Чёрная Роза
TTITLE3=В Сибирь
TTITLE4=Полукровка
TTITLE5=Как-То Раз На "Малину"...
TTITLE6=Последний Стос
TTITLE7=Марсель
TTITLE8=Дым Твоих Папирос
TTITLE9=Однажды В Столице...
TTITLE10=Встреча
TTITLE11=Голубая Кровь
TTITLE12=Измаил
TTITLE13=Пей, Моя Девочка
TTITLE14=Не Торопись
EXTD=RCD 20001 Made by SONY DADC Austria\nRCD Are trademark of Russian
EXTD=Compact Disc
EXTT0=
EXTT1=
EXTT2=
EXTT3=
EXTT4=
EXTT5=
EXTT6=
EXTT7=
EXTT8=
EXTT9=
EXTT10=
EXTT11=
EXTT12=
EXTT13=
EXTT14=
PLAYORDER=
